<?xml version="1.0" encoding="UTF-8"?>
<svg width="190px" height="384px" viewBox="0 0 190 384" version="1.1" xmlns="http://www.w3.org/2000/svg" xmlns:xlink="http://www.w3.org/1999/xlink">
    <g id="Page-1" stroke="none" stroke-width="1" fill="none" fill-rule="evenodd">
        <g id="facebook" fill-rule="nonzero" fill="#000">
            <path d="M189.91219,7.614712 C179.53238,5.394135 169.69668,3.581123 160.40507,2.175623 C151.11313,0.770925 141.0055,0.045698 130.08215,0 C98.26335,0.13635 75.28318,7.479112 61.14162,22.02831 C46.99995,36.57822 40.06509,57.51874 40.33713,84.84985 L40.33713,124.55521 L0.08781,124.55521 L0.08781,188.73655 L40.33713,188.73655 L40.33713,384 L118.66006,384 L118.66006,188.73655 L175.77052,188.73655 L181.20965,124.55521 L118.66006,124.55521 L118.66006,93.5524 C118.20668,84.7595 119.52111,77.87001 122.60341,72.88384 C125.68542,67.89832 133.25481,65.36008 145.31162,65.26912 C150.12732,65.29182 155.72505,65.65471 162.10481,66.35692 C168.48423,67.05979 174.4899,67.96631 180.12181,69.07647 L189.91219,7.614712 Z" id="Shape"></path>
        </g>
    </g>
</svg>