<?xml version="1.0" encoding="UTF-8"?>
<svg width="384px" height="384px" viewBox="0 0 384 384" version="1.1" xmlns="http://www.w3.org/2000/svg" xmlns:xlink="http://www.w3.org/1999/xlink">
    <g stroke="none" stroke-width="1" fill="none" fill-rule="evenodd">
        <path id="instagramPath" d="M201.93,0 C160.263,1.375 117.747,-3.251 76.844,6.62 C36.266,16.604 6.733,54.421 2.87,95.421 C-1.768,145.737 0.649,196.419 0.483,246.882 C0.353,282.663 3.86,322.422 30.179,349.453 C57.171,379.979 100.382,384.304 138.608,383.513 C189.761,383.639 241.16,385.611 292.127,380.6 C331.435,375.548 367.028,347.001 377.023,308.054 C386.766,270.2 382.584,230.585 384,191.919 C382.497,152.066 387.194,111.03 375.894,72.243 C364.414,33.663 327.697,6.596 288.255,2.72 C259.624,-0.407 230.688,0.38 201.931,0 L201.93,0 Z M170.936,34.377 C211.628,35.418 252.767,32.043 293.131,38.404 C320.21,43.246 341.853,66.054 346.015,93.129 C351.438,132.597 348.943,172.714 349.617,212.464 C347.686,244.767 353.145,278.956 340.03,309.549 C328.209,336.689 297.6,348.347 269.715,348.374 C216.75,350.005 163.659,350.262 110.712,348.129 C81.955,347.866 51.338,332.821 41.743,304.204 C31.598,272.182 35.45,237.949 34.533,204.844 C35.191,166.542 32.288,127.78 38.678,89.861 C44.02,60.564 70.664,39.39 99.665,36.834 C123.287,34.201 147.202,34.687 170.937,34.377 L170.936,34.377 Z M293.887,66.757 C274.324,65.999 263.448,93.08 278.136,106.061 C291.395,120.641 318.367,109.194 317.208,89.561 C317.454,77.138 306.24,66.358 293.887,66.757 Z M193.576,93.534 C155.044,92.743 117.2,115.92 102.245,151.799 C80.498,196.411 100.628,254.933 144.223,278.086 C186.197,302.399 244.45,289.29 271.934,249.39 C301.646,209.927 294.598,148.975 256.427,117.468 C239.172,102.395 216.515,93.644 193.576,93.534 Z M192.509,127.815 C228.578,126.986 259.634,161.135 256,196.925 C254.285,235.79 211.564,265.692 174.421,253.634 C137.781,244.499 116.992,199.648 133.475,165.751 C143.465,142.846 167.492,127.312 192.509,127.815 Z" fill="#000" fill-rule="nonzero"></path>
    </g>
</svg>