<?xml version="1.0" encoding="UTF-8"?>
<svg xmlns="http://www.w3.org/2000/svg" viewBox="0 0 250.96 70.59"><defs><style>.cls-1{fill:#000;}.cls-2{fill:#f9b62f;}.cls-3{fill:#f36744;}.cls-4{fill:#4d71ba;}.cls-5{fill:#fac73b;}.cls-6{fill:#f4553e;}.cls-7{fill:#3e5eae;}</style></defs><title>Ativo 9</title><g id="Camada_2" data-name="Camada 2"><g id="Layer_1" data-name="Layer 1"><path class="cls-1" d="M98.86,49a19.11,19.11,0,0,1-6.29-1,14.3,14.3,0,0,1-5-3,13.89,13.89,0,0,1-3.33-4.74A15.84,15.84,0,0,1,83,34a15,15,0,0,1,1.23-6.09,14.55,14.55,0,0,1,3.34-4.77,15.09,15.09,0,0,1,5-3.09,17,17,0,0,1,6.1-1.09,16.66,16.66,0,0,1,6.1,1.11,15.35,15.35,0,0,1,5,3.11A14.62,14.62,0,0,1,113,27.92,14.89,14.89,0,0,1,114.26,34a13.46,13.46,0,0,1-.35,3.09,12,12,0,0,1-1.07,2.86A9.53,9.53,0,0,1,111,42.4l-.43.38h0a6,6,0,0,1,6,6V49Zm-.24-23.09a7.65,7.65,0,0,0-3.07.62A8.16,8.16,0,0,0,93,28.28a8.13,8.13,0,0,0,0,11.43,8.14,8.14,0,0,0,2.52,1.71,7.93,7.93,0,0,0,6.15,0,8.15,8.15,0,0,0,2.52-1.71,8.13,8.13,0,0,0,0-11.43,8.17,8.17,0,0,0-2.52-1.71A7.65,7.65,0,0,0,98.63,25.95Z"/><path class="cls-1" d="M129.32,49.7a13.79,13.79,0,0,1-5-.86,10.26,10.26,0,0,1-3.69-2.41,10.13,10.13,0,0,1-2.24-3.64,13.32,13.32,0,0,1-.74-4.51V21.57h7.18V38.06a5.65,5.65,0,0,0,.34,2,4.66,4.66,0,0,0,.94,1.55,4.22,4.22,0,0,0,1.43,1,4.56,4.56,0,0,0,1.83.36,4.43,4.43,0,0,0,1.8-.36,4.27,4.27,0,0,0,1.42-1,4.67,4.67,0,0,0,.94-1.55,5.65,5.65,0,0,0,.34-2V21.57H141V38.28a13.34,13.34,0,0,1-.74,4.51A10.15,10.15,0,0,1,138,46.43a10.27,10.27,0,0,1-3.69,2.41A13.68,13.68,0,0,1,129.32,49.7Z"/><path class="cls-1" d="M162.58,49l-2.24-5.51h-9.13L149,49h-7.91L152.2,23.42A3.07,3.07,0,0,1,155,21.57h3.67L170.64,49Zm-4.77-11.81-2.13-5.4-2.11,5.4Z"/><polygon class="cls-1" points="215 49.04 205.47 37.91 205.47 49.04 198.29 49.04 198.29 21.57 205.47 21.57 205.47 31.27 214.54 21.57 224.04 21.57 211.76 34.4 224.97 49.04 215 49.04"/><path class="cls-1" d="M233.44,49V37.41L223.06,21.57h8.83L237,30.64l4.38-7.3a3.65,3.65,0,0,1,3.13-1.77H251L240.57,37.41V49Z"/><path class="cls-1" d="M189.29,39.68a8.88,8.88,0,0,0,5-8v-.8a9.34,9.34,0,0,0-9.34-9.34H172V49h7.38V40.46h2.42L186.33,49h8.59Zm-2.6-8.48a2.88,2.88,0,0,1-2.88,2.88h-4.25a.11.11,0,0,1-.11-.11V28.16h4.2a3,3,0,0,1,3,3Z"/><path class="cls-2" d="M56.37,47.35h0l-.54.19-.09,0-.48.15-.14,0-.45.11-.16,0L54,48l-.13,0-.61.09h0A12.88,12.88,0,0,1,46,46.94l-.06,0-.44-.23-.16-.09-.17-.09L25.89,35.36l-.12-.07L6.47,46.43h0l-.24.14-.16.1a13,13,0,0,0-4,3.95L2,50.76,1.84,51l-.2.35,0,.09q-.14.26-.27.53v0A13,13,0,0,0,0,57.32s0,.09,0,.13,0,.13,0,.2,0,.11,0,.16,0,.24,0,.36,0,.19,0,.29,0,.23,0,.34,0,.21,0,.32,0,.2,0,.3,0,.24.05.36l0,.23c0,.14.05.29.09.43l0,.15c0,.17.08.34.13.5l0,.07c.05.19.11.38.18.57h0a13.07,13.07,0,0,0,1.79,3.49v0l.34.45.07.09.3.36.13.15.26.27.19.2L4,67l.23.22.22.2.25.21.28.22.2.16.44.32.05,0a13,13,0,0,0,5.74,2.15h.06l.48,0,.2,0,.37,0h.85l.53,0H14l.39,0,.19,0,.52-.08.14,0,.42-.08.16,0,.53-.13.1,0L17,70l.12,0,.53-.19.1,0,.47-.2.09,0,.51-.25.13-.07.45-.24.07,0h0L57.84,46.67A13,13,0,0,1,56.37,47.35Z"/><path class="cls-3" d="M64.6,35a13,13,0,0,0-1-4.73l0-.12-.18-.39-.1-.22-.16-.31-.16-.29-.15-.26-.19-.31-.16-.25-.19-.28-.19-.27-.17-.22-.24-.3-.13-.16-.31-.35-.08-.09-.38-.39,0,0a13,13,0,0,0-2.58-2l-.29-.17L19.42,1.73l0,0,.33.2.16.1.36.24.34.24.12.09.41.33h0A12.85,12.85,0,0,1,24,6.21l0,0,.29.5.06.11.19.36.1.2.15.33.16.38.08.2.11.31,0,.15q.09.28.18.56l.06.2.08.3.09.37.05.27q0,.2.07.41l0,.15a13,13,0,0,1,.14,2.24v22.1l19.3,11.14.17.09.16.09.44.23.06,0a13,13,0,0,0,7.24,1.2h0l.61-.09L54,48l.48-.1.16,0,.45-.11.14,0,.48-.15.09,0,.54-.19h0a13,13,0,0,0,1.77-.85h0a13,13,0,0,0,2.58-2l0,0,.38-.39.09-.09.31-.35.13-.16.24-.3.17-.22.19-.27.19-.28.16-.25.19-.31.15-.26.16-.29.16-.31.1-.22.18-.39,0-.12a13,13,0,0,0,1-4.73c0-.1,0-.2,0-.3S64.61,35.1,64.6,35Z"/><path class="cls-4" d="M25.88,12.47v0c0-.15,0-.3,0-.44v-.1c0-.13,0-.25,0-.38s0-.33-.06-.49l0-.15c0-.14,0-.27-.07-.41l-.05-.27-.09-.37-.08-.3-.06-.2q-.08-.28-.18-.56l0-.15L25,8.32,25,8.12l-.16-.38-.15-.33-.1-.2-.19-.36-.06-.11L24,6.24l0,0A13,13,0,0,0,21.18,3h0l-.41-.33-.12-.09-.34-.24-.36-.24L19.79,2l-.33-.2,0,0,0,0-.54-.29,0,0-.56-.27,0,0L17.67.89l-.07,0L17.09.68,17,.64,16.51.5l-.17,0-.42-.1L15.7.29,15.34.22,15,.17l-.31,0-.34,0-.28,0-.37,0H12.49l-.37,0-.2,0-.48,0h-.06A13,13,0,0,0,5.65,2.25l-.05,0-.44.31L5,2.76,4.68,3l-.25.21-.22.19L4,3.62l-.22.22L3.56,4l-.25.27-.13.15-.3.35L2.8,4.9l-.34.45v0q-.38.53-.71,1.1A12.88,12.88,0,0,0,.11,11.26v.07Q0,11.92,0,12.51v.07c0,.12,0,.24,0,.36H0v44.7c0-.07,0-.13,0-.2s0-.09,0-.13A12.87,12.87,0,0,1,1.31,52v0c.09-.18.18-.36.27-.53l0-.09.2-.35L2,50.76l.08-.13a12.87,12.87,0,0,1,4-3.95l.16-.1.24-.15L25.77,35.29l.12-.07v-22C25.9,13,25.89,12.73,25.88,12.47Z"/><path class="cls-5" d="M25.89,57.32v-22l-.12-.07L6.47,46.43h0l-.24.14-.16.1a13,13,0,0,0-4,3.95L2,50.76,1.84,51l-.2.35,0,.09q-.14.26-.27.53v0A13,13,0,0,0,0,57.32s0,.09,0,.13,0,.13,0,.2,0,.11,0,.16,0,.24,0,.36,0,.19,0,.29,0,.23,0,.34,0,.21,0,.32,0,.2,0,.3,0,.24.05.36l0,.23c0,.14.05.29.09.43l0,.15c0,.17.08.34.13.5l0,.07c.05.19.11.38.18.57h0a13.07,13.07,0,0,0,1.79,3.49v0l.34.45.07.09.3.36.13.15.26.27.19.2L4,67l.23.22.22.2.25.21.28.22.2.16.44.32.05,0a13,13,0,0,0,5.74,2.15h.06l.48,0,.2,0,.37,0h.85l.53,0H14l.39,0,.19,0,.52-.08.14,0,.42-.08.16,0,.53-.13.1,0L17,70l.12,0,.53-.19.1,0,.47-.2.09,0,.51-.25.13-.07.45-.24.07,0h0A12.94,12.94,0,0,0,25.89,57.32Z"/><path class="cls-6" d="M64.6,35a13,13,0,0,0-1-4.73l0-.12-.18-.39-.1-.22-.16-.31-.16-.29-.15-.26-.19-.31-.16-.25-.19-.28-.19-.27-.17-.22-.24-.3-.13-.16-.31-.35-.08-.09-.38-.39,0,0a13,13,0,0,0-2.58-2l-.29-.17a12.94,12.94,0,0,0-12.65.16L25.89,35.22v.14l19.3,11.14.17.09.16.09.44.23.06,0a13,13,0,0,0,7.24,1.2h0l.61-.09L54,48l.48-.1.16,0,.45-.11.14,0,.48-.15.09,0,.54-.19h0a13,13,0,0,0,1.77-.85h0a13,13,0,0,0,2.58-2l0,0,.38-.39.09-.09.31-.35.13-.16.24-.3.17-.22.19-.27.19-.28.16-.25.19-.31.15-.26.16-.29.16-.31.1-.22.18-.39,0-.12a13,13,0,0,0,1-4.73c0-.1,0-.2,0-.3S64.61,35.1,64.6,35Z"/><path class="cls-7" d="M25.88,12.47v0c0-.15,0-.3,0-.44v-.1c0-.13,0-.25,0-.38s0-.33-.06-.49l0-.15c0-.14,0-.27-.07-.41l-.05-.27-.09-.37-.08-.3-.06-.2q-.08-.28-.18-.56l0-.15L25,8.32,25,8.12l-.16-.38-.15-.33-.1-.2-.19-.36-.06-.11L24,6.24l0,0A13,13,0,0,0,21.18,3h0l-.41-.33-.12-.09-.34-.24-.36-.24L19.79,2l-.33-.2,0,0,0,0-.54-.29,0,0-.56-.27,0,0L17.67.89l-.07,0L17.09.68,17,.64,16.51.5l-.17,0-.42-.1L15.7.29,15.34.22,15,.17l-.31,0-.34,0-.28,0-.37,0H12.49l-.37,0-.2,0-.48,0h-.06A13,13,0,0,0,5.65,2.25l-.05,0-.44.31L5,2.76,4.68,3l-.25.21-.22.19L4,3.62l-.22.22L3.56,4l-.25.27-.13.15-.3.35L2.8,4.9l-.34.45v0q-.38.53-.71,1.1A12.88,12.88,0,0,0,.11,11.26v.07Q0,11.92,0,12.51v.07c0,.12,0,.24,0,.36H0A12.94,12.94,0,0,0,6.48,24.15h0L25.77,35.29l.12-.07v-22C25.9,13,25.89,12.73,25.88,12.47Z"/><circle fill="#fff" cx="12.95" cy="12.94" r="6.46"/><circle fill="#fff" cx="12.95" cy="57.65" r="6.46"/><circle fill="#fff" cx="51.71" cy="35.22" r="6.46"/></g></g></svg>