<?xml version="1.0" standalone="no"?>
<!DOCTYPE svg PUBLIC "-//W3C//DTD SVG 20010904//EN"
 "http://www.w3.org/TR/2001/REC-SVG-20010904/DTD/svg10.dtd">
<svg version="1.0" xmlns="http://www.w3.org/2000/svg"
 width="421.000000pt" height="421.000000pt" viewBox="0 0 421.000000 421.000000"
 preserveAspectRatio="xMidYMid meet">
<metadata>
Created by potrace 1.11, written by Peter Selinger 2001-2013
</metadata>
<g transform="translate(0.000000,421.000000) scale(0.100000,-0.100000)"
fill="#000000" stroke="none">
<path d="M790 4194 c-242 -51 -451 -219 -548 -440 -72 -164 -67 -37 -67 -1644
0 -1319 1 -1450 17 -1505 29 -106 58 -172 107 -247 242 -368 712 -459 1097
-213 30 19 56 35 58 35 2 0 91 51 198 113 107 62 201 117 209 121 7 4 23 12
34 19 25 15 167 97 215 124 19 11 134 78 255 148 121 70 264 153 318 184 122
70 113 65 397 229 129 74 296 171 370 213 283 163 330 199 421 321 65 88 111
190 134 302 16 79 21 200 11 246 -3 14 -8 41 -10 60 -13 89 -80 235 -147 320
-60 76 -112 123 -194 176 -56 36 -491 289 -715 416 -43 25 -261 150 -574 332
-82 47 -151 86 -153 86 -2 0 -16 9 -31 19 -15 10 -151 90 -302 176 -151 87
-288 166 -305 175 -16 10 -86 50 -155 90 -148 87 -201 111 -295 135 -87 23
-257 27 -345 9z"/>
</g>
</svg>
