<?xml version="1.0" encoding="UTF-8"?>
<svg width="545px" height="384px" viewBox="0 0 545 383" version="1.1" xmlns="http://www.w3.org/2000/svg" xmlns:xlink="http://www.w3.org/1999/xlink">
    <g id="Page-1" stroke="none" stroke-width="1" fill="none" fill-rule="evenodd">
        <g id="youtube" transform="translate(-1.000000, 0.000000)" fill-rule="nonzero" fill="#000">
            <path d="M217.301491,120.713446 C217.292989,171.674923 217.284487,222.634982 217.275985,273.596458 C266.283454,248.027159 315.290923,222.45786 364.298391,196.888561 C315.299424,171.496384 266.299041,146.105624 217.300074,120.713446 L217.301491,120.713446 Z M540.100959,300.081122 C536.12493,329.84183 522.214494,362.393978 491.137417,372.053491 C457.032266,381.147631 421.034037,378.42279 386.06028,380.8529 C281.700133,383.526731 177.042421,383.977328 72.903321,376.047941 C41.2197786,373.512974 15.7114096,347.544089 10.3835867,316.714982 C-0.579542435,263.404162 1.48357196,208.490745 1.65077491,154.311321 C4.75253137,113.121299 1.39997048,67.8248856 25.5494613,31.9938598 C49.808059,2.91613284 90.8549668,5.62255351 125.120236,3.20802952 C241.371631,-0.837431734 357.994273,-2.17505535 474.047292,6.70653875 C505.735085,9.23867159 531.237786,35.2118081 536.572694,66.0394982 C547.348782,118.002775 545.413196,171.534642 545.400443,224.36369 C544.813815,249.665181 542.984502,274.938332 540.100959,300.079705 L540.100959,300.081122 Z" id="Shape"></path>
        </g>
    </g>
</svg>